<?xml version="1.0" encoding="UTF-8" standalone="no"?><!DOCTYPE svg PUBLIC "-//W3C//DTD SVG 1.1//EN" "http://www.w3.org/Graphics/SVG/1.1/DTD/svg11.dtd"><svg width="100%" height="100%" viewBox="0 0 1440 450" version="1.1" xmlns="http://www.w3.org/2000/svg" xmlns:xlink="http://www.w3.org/1999/xlink" xml:space="preserve" xmlns:serif="http://www.serif.com/" style="fill-rule:evenodd;clip-rule:evenodd;stroke-linejoin:round;stroke-miterlimit:2;"><path d="M1375.67,6.035l0,-6.035l64.326,0l0,450l-1440,0l0,-240.32c33.088,32.186 78.86,52.117 129.397,52.117c8.828,0 17.511,-0.609 26.006,-1.784c9.505,48.624 52.597,85.377 104.252,85.377c21.665,0 41.823,-6.465 58.628,-17.559c23.286,41.242 67.693,69.134 118.6,69.134c33.491,0 64.169,-12.073 87.87,-32.077c19.306,19.779 46.32,32.077 76.199,32.077c38.63,0 72.471,-20.555 91.056,-51.258c16.271,4.647 33.808,7.179 52.085,7.179c58.484,0 109.398,-25.931 135.472,-64.084c9.069,1.665 18.514,2.545 28.216,2.545c18.201,0 35.497,-3.097 51.097,-8.663c21.865,14.935 50.31,23.966 81.391,23.966c18.576,0 36.21,-3.226 52.06,-9.01c19.796,34.012 63.168,57.637 113.436,57.637c37.113,0 70.466,-12.877 93.348,-33.304c1.964,0.085 3.941,0.127 5.928,0.127c68.925,0 124.883,-51.338 124.883,-114.572c0,-37.1 -19.263,-70.105 -49.106,-91.05c8.33,-15.349 13.015,-32.651 13.015,-50.949c0,-21.78 -6.638,-42.148 -18.159,-59.494Z" style="fill:#fff;"/></svg>